<svg width="40" height="40" viewBox="0 0 40 40" fill="none" xmlns="http://www.w3.org/2000/svg">
<path d="M23.3333 20.4167C22.0972 20.4167 20.8888 20.0501 19.861 19.3633C18.8332 18.6766 18.0321 17.7005 17.5591 16.5584C17.086 15.4164 16.9623 14.1597 17.2034 12.9473C17.4446 11.735 18.0398 10.6213 18.9139 9.74724C19.788 8.87316 20.9016 8.27791 22.114 8.03675C23.3264 7.79559 24.5831 7.91936 25.7251 8.39241C26.8671 8.86546 27.8433 9.66654 28.53 10.6943C29.2168 11.7222 29.5833 12.9305 29.5833 14.1667C29.5833 15.8243 28.9249 17.414 27.7528 18.5861C26.5807 19.7582 24.9909 20.4167 23.3333 20.4167ZM23.3333 10.4167C22.5917 10.4167 21.8666 10.6366 21.2499 11.0486C20.6333 11.4607 20.1526 12.0464 19.8688 12.7316C19.585 13.4168 19.5107 14.1708 19.6554 14.8982C19.8001 15.6257 20.1572 16.2939 20.6817 16.8183C21.2061 17.3428 21.8743 17.6999 22.6017 17.8446C23.3292 17.9893 24.0832 17.915 24.7684 17.6312C25.4536 17.3474 26.0393 16.8667 26.4513 16.25C26.8634 15.6334 27.0833 14.9083 27.0833 14.1667C27.0833 13.1721 26.6882 12.2183 25.985 11.515C25.2817 10.8117 24.3279 10.4167 23.3333 10.4167ZM35 34.0833C34.6698 34.079 34.3544 33.9459 34.1209 33.7124C33.8874 33.4789 33.7543 33.1635 33.75 32.8333C33.75 29.5833 31.9833 25.4167 23.3333 25.4167C14.6833 25.4167 12.9167 29.5833 12.9167 32.8333C12.9167 33.1648 12.785 33.4828 12.5506 33.7172C12.3161 33.9516 11.9982 34.0833 11.6667 34.0833C11.3351 34.0833 11.0172 33.9516 10.7828 33.7172C10.5484 33.4828 10.4167 33.1648 10.4167 32.8333C10.4167 24.9167 19.4667 22.9167 23.3333 22.9167C27.2 22.9167 36.25 24.9167 36.25 32.8333C36.2457 33.1635 36.1126 33.4789 35.8791 33.7124C35.6456 33.9459 35.3302 34.079 35 34.0833ZM13.8667 21.7667H13.3333C12.0073 21.6385 10.7864 20.9887 9.93936 19.9604C9.09233 18.9321 8.68848 17.6094 8.81667 16.2833C8.94485 14.9572 9.59458 13.7364 10.6229 12.8894C11.6512 12.0423 12.9739 11.6385 14.3 11.7667C14.47 11.774 14.6368 11.8159 14.79 11.8899C14.9433 11.964 15.0798 12.0685 15.1912 12.1972C15.3026 12.3258 15.3866 12.4759 15.438 12.6381C15.4894 12.8003 15.5071 12.9714 15.49 13.1407C15.473 13.31 15.4215 13.4741 15.3389 13.6229C15.2562 13.7716 15.144 13.9019 15.0091 14.0058C14.8743 14.1096 14.7197 14.1849 14.5548 14.2269C14.3898 14.2688 14.2181 14.2767 14.05 14.25C13.7247 14.2176 13.3961 14.251 13.084 14.3484C12.7718 14.4457 12.4825 14.605 12.2333 14.8167C11.9802 15.0208 11.7703 15.2734 11.6158 15.5595C11.4612 15.8456 11.3652 16.1597 11.3333 16.4833C11.2989 16.811 11.33 17.1423 11.4248 17.4578C11.5196 17.7734 11.6763 18.0669 11.8857 18.3213C12.0952 18.5757 12.3531 18.7859 12.6446 18.9396C12.936 19.0933 13.2551 19.1875 13.5833 19.2167C14.1259 19.2631 14.6691 19.1346 15.1333 18.85C15.4162 18.6754 15.7569 18.6203 16.0804 18.6969C16.4039 18.7735 16.6837 18.9754 16.8583 19.2583C17.0329 19.5412 17.088 19.8819 17.0114 20.2054C16.9348 20.5289 16.7329 20.8087 16.45 20.9833C15.677 21.4764 14.7833 21.7473 13.8667 21.7667ZM5 32.8333C4.66982 32.829 4.35438 32.6959 4.12089 32.4624C3.8874 32.2289 3.75432 31.9135 3.75 31.5833C3.75 27.0833 4.95 22.0833 10.8333 22.0833C11.1649 22.0833 11.4828 22.215 11.7172 22.4494C11.9516 22.6839 12.0833 23.0018 12.0833 23.3333C12.0833 23.6648 11.9516 23.9828 11.7172 24.2172C11.4828 24.4516 11.1649 24.5833 10.8333 24.5833C6.91667 24.5833 6.25 27.8333 6.25 31.5833C6.24568 31.9135 6.1126 32.2289 5.87911 32.4624C5.64562 32.6959 5.33018 32.829 5 32.8333Z" fill="#9EA4B1"/>
</svg>
